<svg width="155" height="118" viewBox="0 0 155 118" fill="none" xmlns="http://www.w3.org/2000/svg">
<path fill-rule="evenodd" clip-rule="evenodd" d="M154 2.07025V100C154 109.389 146.389 117 137 117H18C8.61116 117 1 109.389 1 100V78.6153L2 76L7.5 62C8.5 59.5 10.8 54.4 12 54C12.3227 53.8924 12.8306 53.5534 13.4837 53.1174C15.8665 51.5268 20.1833 48.6454 24.5 51C24.6918 51.1046 24.8861 51.2111 25.0827 51.3188C30.5214 54.2993 37.7093 58.2384 43.5 51C48.3 45 55.1667 34.5 58 30C61.1667 25.8333 69.3 19 76.5 25C83.7 31 90.1667 33.5 92.5 34C94.5 35 99.8 34.9 105 26.5C106.751 23.672 107.957 21.5695 108.893 19.9383C111.433 15.513 111.981 14.5573 116 12C120.4 9.19995 126.833 9.16662 129.5 9.49995C133.333 10.5 142.1 11.7 146.5 8.49995C149.204 6.53338 151.921 4.08841 154 2.07025Z" fill="url(#paint0_linear)"/>
<path d="M154 2.07025H154.5V0.888179L153.652 1.71146L154 2.07025ZM1 78.6153L0.532974 78.4368L0.5 78.523V78.6153H1ZM2 76L1.5346 75.8171L1.53297 75.8214L2 76ZM7.5 62L7.03575 61.8143L7.03462 61.8171L7.5 62ZM12 54L12.1581 54.4743L12.1581 54.4743L12 54ZM13.4837 53.1174L13.7613 53.5333L13.7613 53.5333L13.4837 53.1174ZM24.5 51L24.2606 51.4389L24.2606 51.4389L24.5 51ZM25.0827 51.3188L24.8424 51.7572L24.8424 51.7572L25.0827 51.3188ZM43.5 51L43.1096 50.6876L43.1096 50.6876L43.5 51ZM58 30L57.6019 29.6974L57.5886 29.7149L57.5769 29.7335L58 30ZM76.5 25L76.1799 25.3841L76.1799 25.3841L76.5 25ZM92.5 34L92.7236 33.5527L92.6668 33.5244L92.6048 33.511L92.5 34ZM105 26.5L104.575 26.2368L104.575 26.2368L105 26.5ZM108.893 19.9383L109.327 20.1872L109.327 20.1872L108.893 19.9383ZM116 12L116.268 12.4218L116.268 12.4218L116 12ZM129.5 9.49995L129.626 9.01614L129.595 9.00788L129.562 9.00381L129.5 9.49995ZM146.5 8.49995L146.206 8.09558L146.206 8.09558L146.5 8.49995ZM153.5 2.07025V100H154.5V2.07025H153.5ZM153.5 100C153.5 109.113 146.113 116.5 137 116.5V117.5C146.665 117.5 154.5 109.665 154.5 100H153.5ZM137 116.5H18V117.5H137V116.5ZM18 116.5C8.8873 116.5 1.5 109.113 1.5 100H0.5C0.5 109.665 8.33502 117.5 18 117.5V116.5ZM1.5 100V78.6153H0.5V100H1.5ZM1.53297 75.8214L0.532974 78.4368L1.46703 78.7939L2.46703 76.1785L1.53297 75.8214ZM7.03462 61.8171L1.53462 75.8171L2.46538 76.1828L7.96538 62.1828L7.03462 61.8171ZM11.8419 53.5256C11.5791 53.6132 11.3447 53.8042 11.1467 54.0053C10.9401 54.2154 10.7299 54.4819 10.5212 54.7811C10.1032 55.3803 9.66043 56.1552 9.23122 56.9821C8.37143 58.6385 7.53971 60.5544 7.03576 61.8143L7.96424 62.1857C8.46029 60.9455 9.27857 59.0614 10.1188 57.4428C10.5396 56.6322 10.9593 55.9008 11.3413 55.3532C11.5326 55.079 11.7068 54.8619 11.8595 54.7067C12.021 54.5426 12.1209 54.4867 12.1581 54.4743L11.8419 53.5256ZM13.2061 52.7015C12.8769 52.9213 12.5955 53.109 12.3565 53.2556C12.1101 53.4068 11.9445 53.4914 11.8419 53.5256L12.1581 54.4743C12.3783 54.4009 12.6279 54.2623 12.8794 54.108C13.1382 53.9493 13.4373 53.7495 13.7613 53.5333L13.2061 52.7015ZM24.7394 50.561C22.4259 49.2991 20.1167 49.4502 18.1117 50.1039C16.1205 50.753 14.392 51.91 13.2061 52.7015L13.7613 53.5333C14.9583 52.7342 16.5796 51.6552 18.4216 51.0546C20.2498 50.4586 22.2573 50.3462 24.2606 51.4389L24.7394 50.561ZM25.323 50.8803C25.1265 50.7726 24.9318 50.6659 24.7394 50.561L24.2606 51.4389C24.4519 51.5433 24.6457 51.6495 24.8424 51.7572L25.323 50.8803ZM43.1096 50.6876C41.7087 52.4387 40.2434 53.49 38.7654 54.0556C37.2867 54.6215 35.7635 54.7133 34.2293 54.4964C31.1354 54.0589 28.0605 52.3805 25.323 50.8803L24.8424 51.7572C27.5436 53.2375 30.7819 55.0189 34.0893 55.4865C35.7558 55.7221 37.4553 55.6277 39.1229 54.9896C40.7913 54.3511 42.3959 53.1804 43.8904 51.3123L43.1096 50.6876ZM57.5769 29.7335C54.7441 34.2327 47.8904 44.7116 43.1096 50.6876L43.8904 51.3123C48.7097 45.2883 55.5893 34.7672 58.4231 30.2664L57.5769 29.7335ZM76.8201 24.6158C73.0379 21.464 68.9904 21.6951 65.5345 23.2305C62.1053 24.7541 59.2185 27.5704 57.6019 29.6974L58.3981 30.3025C59.9482 28.2629 62.7113 25.5791 65.9405 24.1444C69.143 22.7215 72.7621 22.5359 76.1799 25.3841L76.8201 24.6158ZM92.6048 33.511C90.3636 33.0308 83.9689 30.5732 76.8201 24.6158L76.1799 25.3841C83.4311 31.4267 89.9697 33.9691 92.3952 34.4889L92.6048 33.511ZM104.575 26.2368C99.4465 34.521 94.3971 34.3895 92.7236 33.5527L92.2764 34.4472C94.6029 35.6104 100.153 35.2789 105.425 26.7631L104.575 26.2368ZM108.46 19.6895C107.524 21.3196 106.321 23.4162 104.575 26.2368L105.425 26.7631C107.18 23.9278 108.39 21.8194 109.327 20.1872L108.46 19.6895ZM115.732 11.5781C113.71 12.8644 112.519 13.7742 111.513 14.9425C110.518 16.0983 109.721 17.4913 108.46 19.6895L109.327 20.1872C110.605 17.96 111.352 16.6626 112.271 15.5948C113.179 14.5396 114.271 13.6929 116.268 12.4218L115.732 11.5781ZM129.562 9.00381C128.188 8.83204 125.871 8.75691 123.337 9.07894C120.807 9.40053 118.017 10.1234 115.732 11.5781L116.268 12.4218C118.382 11.0765 121.01 10.3827 123.463 10.071C125.913 9.75966 128.145 9.83453 129.438 9.99609L129.562 9.00381ZM146.206 8.09558C144.14 9.59792 140.985 10.0998 137.791 10.075C134.618 10.0503 131.509 9.50742 129.626 9.01614L129.374 9.98376C131.324 10.4925 134.515 11.0496 137.784 11.0749C141.031 11.1001 144.46 10.602 146.794 8.90432L146.206 8.09558ZM153.652 1.71146C151.581 3.72122 148.883 6.14836 146.206 8.09558L146.794 8.90432C149.525 6.91839 152.26 4.4556 154.348 2.42904L153.652 1.71146Z" fill="white" fill-opacity="0.2"/>
<defs>
<linearGradient id="paint0_linear" x1="68" y1="-46.5" x2="70" y2="97.5" gradientUnits="userSpaceOnUse">
<stop stop-color="white"/>
<stop offset="1" stop-color="#C4C4C4" stop-opacity="0"/>
</linearGradient>
</defs>
</svg>
