<svg width="375" height="119" viewBox="0 0 375 119" fill="none" xmlns="http://www.w3.org/2000/svg">
<path fill-rule="evenodd" clip-rule="evenodd" d="M532 1V101C532 110.389 524.389 118 515 118H-251C-260.389 118 -268 110.389 -268 101V78.924L-262.771 76.2614L-234.013 62.0092C-228.784 59.4642 -216.758 54.2723 -210.484 53.8651C-208.796 53.7556 -206.141 53.4105 -202.726 52.9667C-190.266 51.3475 -167.695 48.4141 -145.124 50.8111C-144.121 50.9176 -143.105 51.026 -142.078 51.1356C-113.64 54.1698 -76.056 58.1799 -45.7777 50.8111C-20.6796 44.703 15.2245 34.0139 30.0393 29.4328C46.597 25.1911 89.1243 18.2346 126.771 24.3427C164.418 30.4508 198.231 32.9958 210.431 33.5048C220.889 34.5229 248.601 34.4211 275.791 25.8697C284.944 22.9909 291.253 20.8505 296.148 19.1899C309.427 14.6849 312.294 13.712 333.307 11.1085C356.314 8.25811 389.952 8.22417 403.896 8.56351C423.939 9.58152 469.778 10.8031 492.784 7.5455C506.923 5.5435 521.128 3.0545 532 1Z" fill="url(#paint0_linear)"/>
<path d="M532 1H532.5V0.396668L531.907 0.508695L532 1ZM-268 78.924L-268.227 78.4784L-268.5 78.6175V78.924H-268ZM-262.771 76.2614L-262.993 75.8134L-262.998 75.8159L-262.771 76.2614ZM-234.013 62.0092L-234.232 61.5596L-234.235 61.5612L-234.013 62.0092ZM-210.484 53.8651L-210.451 54.3641L-210.451 54.3641L-210.484 53.8651ZM-202.726 52.9667L-202.661 53.4625L-202.661 53.4625L-202.726 52.9667ZM-145.124 50.8111L-145.177 51.3083L-145.177 51.3083L-145.124 50.8111ZM-142.078 51.1356L-142.024 50.6385L-142.024 50.6385L-142.078 51.1356ZM-45.7777 50.8111L-45.8959 50.3253L-45.8959 50.3253L-45.7777 50.8111ZM30.0393 29.4328L29.9152 28.9484L29.9033 28.9515L29.8916 28.9551L30.0393 29.4328ZM126.771 24.3427L126.851 23.8492L126.851 23.8492L126.771 24.3427ZM210.431 33.5048L210.48 33.0072L210.466 33.0059L210.452 33.0053L210.431 33.5048ZM275.791 25.8697L275.641 25.3928L275.641 25.3928L275.791 25.8697ZM296.148 19.1899L295.987 18.7164L295.987 18.7164L296.148 19.1899ZM333.307 11.1085L333.369 11.6047L333.369 11.6047L333.307 11.1085ZM403.896 8.56351L403.921 8.06398L403.908 8.06366L403.896 8.56351ZM492.784 7.5455L492.714 7.05043L492.714 7.05043L492.784 7.5455ZM531.5 1V101H532.5V1H531.5ZM531.5 101C531.5 110.113 524.113 117.5 515 117.5V118.5C524.665 118.5 532.5 110.665 532.5 101H531.5ZM515 117.5H-251V118.5H515V117.5ZM-251 117.5C-260.113 117.5 -267.5 110.113 -267.5 101H-268.5C-268.5 110.665 -260.665 118.5 -251 118.5V117.5ZM-267.5 101V78.924H-268.5V101H-267.5ZM-262.998 75.8159L-268.227 78.4784L-267.773 79.3695L-262.544 76.707L-262.998 75.8159ZM-234.235 61.5612L-262.993 75.8134L-262.549 76.7094L-233.791 62.4572L-234.235 61.5612ZM-210.516 53.3662C-213.734 53.575 -218.371 55.0003 -222.816 56.6673C-227.277 58.3406 -231.606 60.2813 -234.232 61.5597L-233.794 62.4588C-231.192 61.1921 -226.892 59.2643 -222.465 57.6036C-218.021 55.9367 -213.507 54.5624 -210.451 54.3641L-210.516 53.3662ZM-202.79 52.4708C-206.214 52.9158 -208.849 53.258 -210.516 53.3662L-210.451 54.3641C-208.743 54.2532 -206.068 53.9052 -202.661 53.4625L-202.79 52.4708ZM-145.071 50.3139C-167.708 47.9099 -190.334 50.852 -202.79 52.4708L-202.661 53.4625C-190.199 51.8429 -167.682 48.9183 -145.177 51.3083L-145.071 50.3139ZM-142.024 50.6385C-143.052 50.5288 -144.068 50.4204 -145.071 50.3139L-145.177 51.3083C-144.174 51.4148 -143.158 51.5232 -142.131 51.6328L-142.024 50.6385ZM-45.8959 50.3253C-76.0732 57.6695 -113.564 53.6751 -142.024 50.6385L-142.131 51.6328C-113.715 54.6646 -76.0387 58.6903 -45.6594 51.2969L-45.8959 50.3253ZM29.8916 28.9551C15.079 33.5355 -20.8133 44.2209 -45.8959 50.3253L-45.6594 51.2969C-20.546 45.1851 15.3701 34.4922 30.187 29.9105L29.8916 28.9551ZM126.851 23.8492C89.1114 17.726 46.5097 24.6973 29.9152 28.9484L30.1634 29.9171C46.6844 25.6848 89.1372 18.7433 126.691 24.8363L126.851 23.8492ZM210.452 33.0053C198.27 32.497 164.478 29.9539 126.851 23.8492L126.691 24.8363C164.359 30.9477 198.192 33.4946 210.411 34.0044L210.452 33.0053ZM275.641 25.3928C248.528 33.9199 220.885 34.0201 210.48 33.0072L210.383 34.0025C220.893 35.0256 248.674 34.9222 275.941 26.3467L275.641 25.3928ZM295.987 18.7164C291.094 20.3767 284.789 22.5156 275.641 25.3928L275.941 26.3467C285.1 23.4662 291.413 21.3243 296.309 19.6634L295.987 18.7164ZM333.246 10.6123C322.739 11.9141 316.747 12.8106 311.717 13.9485C306.684 15.087 302.622 16.4654 295.987 18.7164L296.309 19.6634C302.952 17.4094 306.964 16.0489 311.938 14.9238C316.914 13.7981 322.863 12.9064 333.369 11.6047L333.246 10.6123ZM403.908 8.06366C389.959 7.72419 356.29 7.75718 333.246 10.6123L333.369 11.6047C356.337 8.75903 389.945 8.72415 403.883 9.06336L403.908 8.06366ZM492.714 7.05043C469.763 10.3003 423.971 9.08251 403.921 8.06415L403.87 9.06287C423.907 10.0805 469.793 11.306 492.855 8.04056L492.714 7.05043ZM531.907 0.508695C521.04 2.56228 506.843 5.04985 492.714 7.05043L492.855 8.04056C507.003 6.03716 521.216 3.54672 532.093 1.49131L531.907 0.508695Z" fill="white" fill-opacity="0.2"/>
<defs>
<linearGradient id="paint0_linear" x1="82.3268" y1="-48.4452" x2="82.7232" y2="98.1759" gradientUnits="userSpaceOnUse">
<stop stop-color="white"/>
<stop offset="1" stop-color="#C4C4C4" stop-opacity="0"/>
</linearGradient>
</defs>
</svg>
