<svg width="375" height="200" viewBox="0 0 375 200" fill="none" xmlns="http://www.w3.org/2000/svg">
<path fill-rule="evenodd" clip-rule="evenodd" d="M532 1V183C532 192.389 524.389 200 515 200H-251C-260.389 200 -268 192.389 -268 183V133.537L-262.771 129.009L-234.013 104.768C-228.784 100.439 -216.758 91.6085 -210.484 90.9159C-208.796 90.7296 -206.141 90.1427 -202.726 89.3877C-190.266 86.6337 -167.695 81.6445 -145.124 85.7214C-144.121 85.9026 -143.105 86.0869 -142.078 86.2734C-113.64 91.4341 -76.056 98.2546 -45.7777 85.7214C-20.6796 75.3324 15.2245 57.1518 30.0393 49.36C46.597 42.1455 89.1243 30.3136 126.771 40.7026C164.418 51.0915 198.231 55.4203 210.431 56.286C220.889 58.0175 248.601 57.8444 275.791 43.2998C284.944 38.4033 291.253 34.7628 296.148 31.9384C309.427 24.276 312.294 22.6212 333.307 18.1932C356.314 13.345 389.952 13.2873 403.896 13.8644C423.939 15.5959 469.778 17.6737 492.784 12.1329C506.923 8.72784 521.128 4.49441 532 1Z" fill="url(#paint0_linear)"/>
<path d="M532 1H532.5V0.314107L531.847 0.523982L532 1ZM-268 133.537L-268.327 133.159L-268.5 133.309V133.537H-268ZM-262.771 129.009L-263.093 128.626L-263.098 128.631L-262.771 129.009ZM-234.013 104.768L-234.332 104.383L-234.335 104.386L-234.013 104.768ZM-210.484 90.9159L-210.429 91.4129L-210.429 91.4129L-210.484 90.9159ZM-202.726 89.3877L-202.618 89.876L-202.618 89.876L-202.726 89.3877ZM-145.124 85.7214L-145.035 85.2294L-145.035 85.2294L-145.124 85.7214ZM-142.078 86.2734L-142.167 86.7654L-142.167 86.7654L-142.078 86.2734ZM-45.7777 85.7214L-45.5864 86.1834L-45.7777 85.7214ZM30.0393 49.36L29.8396 48.9017L29.8228 48.909L29.8066 48.9175L30.0393 49.36ZM126.771 40.7026L126.904 40.2206L126.904 40.2206L126.771 40.7026ZM210.431 56.286L210.513 55.7927L210.49 55.7889L210.467 55.7873L210.431 56.286ZM275.791 43.2998L275.555 42.8589L275.555 42.8589L275.791 43.2998ZM296.148 31.9384L296.398 32.3715L296.398 32.3715L296.148 31.9384ZM333.307 18.1932L333.204 17.7039L333.204 17.7039L333.307 18.1932ZM403.896 13.8644L403.939 13.3663L403.927 13.3653L403.916 13.3649L403.896 13.8644ZM492.784 12.1329L492.667 11.6468L492.667 11.6468L492.784 12.1329ZM531.5 1V183H532.5V1H531.5ZM531.5 183C531.5 192.113 524.113 199.5 515 199.5V200.5C524.665 200.5 532.5 192.665 532.5 183H531.5ZM515 199.5H-251V200.5H515V199.5ZM-251 199.5C-260.113 199.5 -267.5 192.113 -267.5 183H-268.5C-268.5 192.665 -260.665 200.5 -251 200.5V199.5ZM-267.5 183V133.537H-268.5V183H-267.5ZM-263.098 128.631L-268.327 133.159L-267.673 133.915L-262.444 129.387L-263.098 128.631ZM-234.335 104.386L-263.093 128.626L-262.449 129.391L-233.691 105.15L-234.335 104.386ZM-210.538 90.4189C-212.19 90.6012 -214.178 91.3112 -216.286 92.312C-218.403 93.3168 -220.677 94.6325 -222.909 96.0568C-227.374 98.9053 -231.705 102.208 -234.332 104.383L-233.694 105.153C-231.092 102.999 -226.795 99.7219 -222.372 96.8998C-220.16 95.4888 -217.924 94.1964 -215.857 93.2154C-213.783 92.2304 -211.914 91.5768 -210.429 91.4129L-210.538 90.4189ZM-202.833 88.8995C-206.263 89.6576 -208.885 90.2364 -210.538 90.4189L-210.429 91.4129C-208.707 91.2229 -206.018 90.6277 -202.618 89.876L-202.833 88.8995ZM-145.035 85.2294C-167.718 81.1323 -190.381 86.1469 -202.833 88.8995L-202.618 89.876C-190.152 87.1205 -167.673 82.1566 -145.213 86.2134L-145.035 85.2294ZM-141.988 85.7815C-143.016 85.595 -144.032 85.4106 -145.035 85.2294L-145.213 86.2134C-144.21 86.3946 -143.195 86.5789 -142.167 86.7654L-141.988 85.7815ZM-45.9689 85.2594C-61.0137 91.487 -77.8972 92.915 -94.5944 92.1332C-111.292 91.3514 -127.765 88.3626 -141.988 85.7815L-142.167 86.7654C-127.952 89.345 -111.415 92.3467 -94.6412 93.1321C-77.8676 93.9174 -60.8199 92.4891 -45.5864 86.1834L-45.9689 85.2594ZM29.8066 48.9175C14.9943 56.7079 -20.8931 74.8796 -45.9689 85.2594L-45.5864 86.1834C-20.4662 75.7852 15.4547 57.5956 30.2721 49.8026L29.8066 48.9175ZM126.904 40.2206C89.1012 29.7885 46.4483 41.6649 29.8396 48.9017L30.239 49.8184C46.7458 42.6261 89.1474 30.8387 126.638 41.1846L126.904 40.2206ZM210.467 55.7873C198.298 54.9238 164.518 50.6004 126.904 40.2206L126.638 41.1846C164.319 51.5827 198.164 55.9168 210.396 56.7848L210.467 55.7873ZM275.555 42.8589C248.477 57.3441 220.879 57.509 210.513 55.7927L210.35 56.7793C220.899 58.526 248.726 58.3446 276.027 43.7407L275.555 42.8589ZM295.898 31.5054C291.005 34.329 284.701 37.9663 275.555 42.8589L276.027 43.7407C285.188 38.8403 291.502 35.1965 296.398 32.3715L295.898 31.5054ZM333.204 17.7039C322.697 19.9182 316.692 21.4456 311.648 23.3863C306.601 25.3278 302.53 27.6783 295.898 31.5054L296.398 32.3715C303.044 28.5362 307.047 26.228 312.007 24.3196C316.97 22.4102 322.905 20.8962 333.41 18.6824L333.204 17.7039ZM403.916 13.3649C389.963 12.7873 356.274 12.8424 333.204 17.7039L333.41 18.6824C356.354 13.8476 389.941 13.7872 403.875 14.364L403.916 13.3649ZM492.667 11.6468C481.227 14.4021 464.068 15.2691 447.23 15.2258C430.405 15.1825 413.948 14.231 403.939 13.3663L403.853 14.3626C413.886 15.2294 430.371 16.1825 447.228 16.2258C464.072 16.2691 481.335 15.4046 492.901 12.619L492.667 11.6468ZM531.847 0.523982C520.982 4.01602 506.79 8.24557 492.667 11.6468L492.901 12.619C507.056 9.21011 521.273 4.97281 532.153 1.47602L531.847 0.523982Z" fill="white" fill-opacity="0.2"/>
<defs>
<linearGradient id="paint0_linear" x1="82.3268" y1="-83.099" x2="83.4737" y2="166.279" gradientUnits="userSpaceOnUse">
<stop stop-color="white"/>
<stop offset="1" stop-color="#C4C4C4" stop-opacity="0"/>
</linearGradient>
</defs>
</svg>
